PathFileType	4	(X/Y/Z)	54_1_43_p0_0-311.trc
DataRate	CameraRate	NumFrames	NumMarkers	Units	OrigDataRate	OrigDataStartFrame	OrigNumFrames
59.0	59.0	5	27	m	59.0	78	312
Frame#	Time	RHip			RKnee			RAnkle			RBigToe			RSmallToe			RHeel			LHip			LKnee			LAnkle			LBigToe			LSmallToe			LHeel			Neck			Head			Nose			RShoulder			RElbow			RWrist			RThumb			RIndex			RPinky			LShoulder			LElbow			LWrist			LThumb			LIndex			LPinky			
		X1	Y1	Z1	X2	Y2	Z2	X3	Y3	Z3	X4	Y4	Z4	X5	Y5	Z5	X6	Y6	Z6	X7	Y7	Z7	X8	Y8	Z8	X9	Y9	Z9	X10	Y10	Z10	X11	Y11	Z11	X12	Y12	Z12	X13	Y13	Z13	X14	Y14	Z14	X15	Y15	Z15	X16	Y16	Z16	X17	Y17	Z17	X18	Y18	Z18	X19	Y19	Z19	X20	Y20	Z20	X21	Y21	Z21	X22	Y22	Z22	X23	Y23	Z23	X24	Y24	Z24	X25	Y25	Z25	X26	Y26	Z26	X27	Y27	Z27	
78	1.3220338983050848	0.29278366499436664	0.5344461914994157	1.1094546024577638	0.3010833615406666	0.5452926290821052	1.5409681809452402	0.29841511208975807	0.563464964264596	1.9502358638250852	0.22791399142572918	0.37359178435904744	1.9468208875716786	0.30090219644606087	0.3633559967691113	1.9431227240254207	0.2746134365077399	0.6587341625651537	2.0282729116666616	0.07253896411821988	0.5449501696100897	1.1126805198415413	0.07080632672356744	0.5754099256643432	1.5469634088446949	0.07642534108767506	0.5685595229710944	1.9597818522411496	0.08100282750784456	0.3803709656844544	1.9344005517151384	0.01964411212606201	0.4345605913532885	1.9653902402312757	0.09497754088622969	0.6190745647048517	2.022097405929488	0.1854981190576928	0.5707431435238965	0.5820648626980255	0.1685048381952522	0.43531595988391375	0.3317977925412592	0.16489472737788055	0.38243144902145976	0.466315004587816	0.3385950762240863	0.5205994845322256	0.6205412801163089	0.2749365695520127	0.40564988633730326	0.778061619572925	0.20843891613456925	0.48059041938412683	0.6499523578433757	0.20533013016127197	0.498092736335577	0.5777860967601324	0.181436187932313	0.42549793413602394	0.5491251408343918	0.19369094020225958	0.4371759702012578	0.5809799804437855	0.04725962530713271	0.5545110097803293	0.6251968261367472	0.051091978994389324	0.42998571264448865	0.7968303572955772	0.13903615092780408	0.46743055590099664	0.655703588021155	0.1620491908597983	0.4950140196184545	0.6054055142107627	0.16705245662032475	0.4469864892389816	0.5509078461921081	0.17267398805171955	0.40401662642135444	0.5791737346372549
79	1.3389830508474576	0.29271442968532113	0.5341802492772109	1.1093242182536032	0.30103107101913257	0.5452205598721733	1.5408790099963496	0.298407275348988	0.5634119178512967	1.9502507062307766	0.22781342585643596	0.3736183827701327	1.9467143465249075	0.30083455061895636	0.3631859345919932	1.9430116313989996	0.27456627882537554	0.6586454957601889	2.0282252815907222	0.07267406343822061	0.5436115858651807	1.1160140246945038	0.07010914877920933	0.5743198205680919	1.54162655302006	0.07642151587344784	0.5686266082104916	1.959771040890694	0.07827905236209694	0.3699436403526262	1.9269902035994046	0.01963335321148846	0.43437935326375154	1.9651556761537392	0.09492981552547518	0.6192104358334996	2.022023870475045	0.18934896190970874	0.5571691048778957	0.5795936666067156	0.1718981267924228	0.4384996252598081	0.3291346133215224	0.16515888368953302	0.395385218779358	0.46821259264333903	0.3385447902038124	0.5204578515297127	0.6205791251297222	0.27388408008752685	0.40287815541577154	0.7761967951935552	0.20794530667510658	0.4808948590942527	0.6452878686892661	0.2013033079236466	0.49373465129197397	0.5807426660439731	0.18141001281461114	0.42533303967615016	0.5532154465358121	0.198767644161655	0.44096035515553783	0.5814219079726743	0.047211670024252236	0.554345879156116	0.6251960803618627	0.05139511804441115	0.42993980343800764	0.7947310291467061	0.13937871324259427	0.46805266050679895	0.6601301829753655	0.1586417861988266	0.5054517141193844	0.610886296105242	0.16764446123958096	0.44846376627288825	0.5581655456233033	0.17284142312994602	0.4048057486652429	0.5799245213058251
80	1.3559322033898304	0.2926771807770325	0.5341835934554778	1.109352146214512	0.3011048681960592	0.5454040967687243	1.540875102103626	0.29840699746961497	0.5632167339624715	1.9500057398196133	0.22416459165919517	0.3637941750579985	1.939682028170291	0.3008558021681888	0.36318009085426095	1.9428379036963344	0.274564960630882	0.6586014001848506	2.02817887024014	0.07255498857364591	0.5435068490306617	1.11586209913038	0.07005681032312447	0.5742260655986672	1.5416641531103168	0.07101901045231254	0.5637988732389292	1.9516943364702026	0.07822098748632449	0.36980815932660305	1.9268532782821102	0.01962750981883702	0.43446206489832273	1.9651306634003298	0.09488126185514165	0.6190681252842447	2.021710286770666	0.18888408468282647	0.5564275530660685	0.5754215664409511	0.1722642174630976	0.4383199164494543	0.33204680626832767	0.16882726535619025	0.3978520694111807	0.46521257926817877	0.3341291685253591	0.5099657077342101	0.6152162204752425	0.27330467689660265	0.40233525801128706	0.7765685066566532	0.2089310906543557	0.4844243282195756	0.6445306904405443	0.20142380568367557	0.4952850155627088	0.5777366000497723	0.1816317119941976	0.42656748950654594	0.5462300366033513	0.19860809040741426	0.44201585968742374	0.580573868797345	0.047236973209067376	0.5544760725580667	0.6251428206809361	0.0510460473319974	0.4299006603431463	0.7967925083874525	0.1395457174241194	0.46818553247241534	0.6569428757459945	0.15461580795723434	0.493834692553934	0.6022242946511341	0.1645799743892468	0.4367611441875762	0.5474099004824083	0.1724352688900432	0.40528731272790763	0.5724632578799681
81	1.3728813559322033	0.2882251702091014	0.5321757356856955	1.1086901717747162	0.3010810177318991	0.5453897861316681	1.5407270843175878	0.29744008444568876	0.5622289833416272	1.9443732990706675	0.22416044043076874	0.3636420890148848	1.939634074468792	0.3008677931494456	0.36304336110683433	1.9427873255144907	0.27465955944136533	0.6590782100174177	2.0285406932337207	0.07263812733176725	0.5436755129860903	1.1159635842482691	0.07001688404232838	0.5743679859770959	1.5416614483659337	0.07449273126948777	0.5756629206772479	1.959371731240849	0.07817915970550432	0.3702324250136739	1.9271820115914038	0.019657223882537305	0.43457676557335695	1.9651847053524547	0.09412184445264278	0.6174237565296998	2.016805412476395	0.18889285351134552	0.5561867501043949	0.5754800951428075	0.1756976393672125	0.44015963042341344	0.33231436706450845	0.1687379943746133	0.3980876471206865	0.46527463517655804	0.33415220715357075	0.5098262019199481	0.6152077318175213	0.2773375257088879	0.41213112995154527	0.7829258000284555	0.2092223032852358	0.4852069379673463	0.6485232375145804	0.20692545320121902	0.4841344314417872	0.5772784464393672	0.19506131171809066	0.4695452966408506	0.5606496925833171	0.1992538183440477	0.44341094753200744	0.5824827270175662	0.047090243470628755	0.5539270124063791	0.6250679306217964	0.05502160520741489	0.418838609929963	0.7936769139472666	0.13935238105512754	0.4673397413411852	0.6524914413179467	0.15639516613101534	0.494021530052253	0.6029635202298099	0.16531018021329064	0.4377756613774107	0.5457052343814577	0.17579488395206172	0.40765324172590917	0.573326947415168
82	1.3898305084745763	0.29139716312864467	0.5177948223834503	1.1033828468286746	0.30112944838535105	0.5456123498249452	1.5407829464624714	0.2974556340764262	0.5622253606445218	1.9443944568126115	0.2241527767404691	0.3636534681551279	1.939615049504311	0.30084264064344224	0.362888016855217	1.9427305974378841	0.274618577337362	0.6590334179954077	2.0284996472299963	0.07290457698642791	0.5458662007355027	1.1175733919608253	0.07000647823412164	0.5743499989110531	1.5416876862195057	0.07187164143300856	0.5650585129941369	1.9574287614471246	0.07827133084989558	0.3700575759911895	1.9270112421235712	0.020856215822775467	0.4339839031325309	1.9605826847256567	0.09490893963407303	0.6190535149532146	2.0215573719316207	0.18910566103572193	0.5568673269800827	0.5794182828331127	0.17928442071925488	0.44208996801938005	0.3324478059813148	0.1728703392250379	0.39907331107780714	0.4653299904262783	0.3341694096725763	0.5099984030804808	0.6151622409667261	0.2773846466379749	0.41144750752476505	0.7828479319693826	0.20906319730843662	0.4859601192031987	0.6543990134351679	0.20317169131967724	0.49762105314630456	0.582599847320957	0.19465844462621903	0.46866384489552	0.5602397877833855	0.2041554640043921	0.44689719009630835	0.5823859715990602	0.04701292366035792	0.5538218732992539	0.6251119143384902	0.054774975240906146	0.4184640639884325	0.7957365157949231	0.14284392016814174	0.4545662144251975	0.6523494464139252	0.1640799021713225	0.4811912409647481	0.6035850307318068	0.1658122671536442	0.43763761831207026	0.548333237299813	0.17618551478259614	0.4068062118518019	0.5729931466375937
